<?xml version="1.0" encoding="UTF-8" standalone="no"?>
<svg
   id="Layer_1"
   viewBox="0 0 140.00001 140"
   version="1.1"
   sodipodi:docname="icon.svg"
   width="140"
   height="140"
   inkscape:version="1.2.2 (b0a8486541, 2022-12-01)"
   xmlns:inkscape="http://www.inkscape.org/namespaces/inkscape"
   xmlns:sodipodi="http://sodipodi.sourceforge.net/DTD/sodipodi-0.dtd"
   xmlns="http://www.w3.org/2000/svg"
   xmlns:svg="http://www.w3.org/2000/svg">
  <sodipodi:namedview
     id="namedview15"
     pagecolor="#ffffff"
     bordercolor="#000000"
     borderopacity="0.25"
     inkscape:showpageshadow="2"
     inkscape:pageopacity="0.0"
     inkscape:pagecheckerboard="0"
     inkscape:deskcolor="#d1d1d1"
     showgrid="false"
     inkscape:zoom="5.5824209"
     inkscape:cx="70.847399"
     inkscape:cy="70.489131"
     inkscape:window-width="1920"
     inkscape:window-height="995"
     inkscape:window-x="0"
     inkscape:window-y="0"
     inkscape:window-maximized="1"
     inkscape:current-layer="Layer_1" />
  <defs
     id="defs4">
    <style
       id="style2">.cls-1{fill:none;stroke:#1a6f66;stroke-linecap:round;stroke-linejoin:round;stroke-width:6.12px;}.cls-2{fill:#f86226;}.cls-2,.cls-3,.cls-4{stroke-width:0px;}.cls-3{fill:#fff;}.cls-4{fill:#fbb946;}</style>
  </defs>
  <path
     class="cls-4"
     d="M 119.12765,39.50194 C 109.05258,22.892156 91.039111,12.474 70.233938,12.474 40.461018,12.474 15.89719,35.24422 13.058704,64.284052 H 2.2506182 c -1.73116459,0 -2.80729488,1.871525 -1.94950943,3.368746 L 8.3798781,81.626852 16.458649,95.60091 c 0.857785,1.49722 3.025639,1.49722 3.883424,0 L 28.420845,81.626852 36.499614,67.652798 C 37.3574,66.155577 36.281269,64.284052 34.550105,64.284052 H 24.38146 c 2.791697,-22.832606 22.286799,-40.580903 45.868075,-40.580903 18.6997,0 34.841665,11.151172 42.109425,27.152712"
     id="path8" />
  <path
     class="cls-2"
     d="m 21.106282,100.60724 c 10.18424,16.1575 28.182119,26.91876 48.659774,26.91876 29.772918,0 54.336754,-22.77023 57.175234,-51.810047 h 10.80809 c 1.73117,0 2.80729,-1.871526 1.94952,-3.368745 L 131.62012,58.373153 123.54136,44.3991 c -0.85779,-1.497221 -3.02565,-1.497221 -3.88343,0 l -8.07877,13.974053 -8.07877,13.974055 c -0.85779,1.497219 0.21835,3.368745 1.94949,3.368745 h 10.16866 c -2.79169,22.832607 -22.286805,40.580897 -45.86808,40.580897 -18.496953,0 -34.482937,-10.91723 -41.875479,-26.63804"
     id="path10" />
  <polyline
     class="cls-1"
     points="56.68 69.36 66.62 78.85 83.8 53.08"
     id="polyline12"
     transform="matrix(1.5596081,0,0,1.5596042,-38.595518,-35.343466)" />
</svg>
